<?xml version="1.0" encoding="UTF-8" standalone="no"?><svg xmlns="http://www.w3.org/2000/svg" xmlns:xlink="http://www.w3.org/1999/xlink" contentScriptType="application/ecmascript" contentStyleType="text/css" height="1674px" preserveAspectRatio="none" style="width:1376px;height:1674px;" version="1.1" viewBox="0 0 1376 1674" width="1376px" zoomAndPan="magnify"><defs><filter height="300%" id="f15ay1w7fx0mo9" width="300%" x="-1" y="-1"><feGaussianBlur result="blurOut" stdDeviation="4.0"/><feColorMatrix in="blurOut" result="blurOut2" type="matrix" values="0 0 0 0 0 0 0 0 0 0 0 0 0 0 0 0 0 0 .4 0"/><feOffset dx="8.0" dy="8.0" in="blurOut2" result="blurOut3"/><feBlend in="SourceGraphic" in2="blurOut3" mode="normal"/></filter></defs><g><!--MD5=[46653707bef81e35964a914dd9a17ee5]
class Tienda--><rect codeLine="2" fill="#FEFECE" filter="url(#f15ay1w7fx0mo9)" height="179.0156" id="Tienda" style="stroke:#A80036;stroke-width:3.0;" width="210" x="571" y="14"/><ellipse cx="632.5" cy="46" fill="#ADD1B2" rx="22" ry="22" style="stroke:#A80036;stroke-width:2.0;"/><path d="M638.0313,37.75 Q638.3438,37.3125 638.7188,37.0938 Q639.0938,36.875 639.5313,36.875 Q640.2813,36.875 640.75,37.4063 Q641.2188,37.9063 641.2188,39.125 L641.2188,42.0313 Q641.2188,43.25 640.75,43.7813 Q640.2813,44.3125 639.5313,44.3125 Q638.8438,44.3125 638.4375,43.9063 Q638.0313,43.5313 637.8125,42.5 Q637.7188,41.7813 637.3438,41.4063 Q636.6875,40.6563 635.4688,40.2188 Q634.25,39.7813 633,39.7813 Q631.4688,39.7813 630.1875,40.4375 Q628.9375,41.0938 627.9375,42.5938 Q626.9688,44.0938 626.9688,46.1563 L626.9688,48.3438 Q626.9688,50.8125 628.75,52.4688 Q630.5313,54.0938 633.7188,54.0938 Q635.5938,54.0938 636.9063,53.5938 Q637.6875,53.2813 638.5313,52.4063 Q639.0625,51.875 639.3438,51.7188 Q639.6563,51.5625 640.0625,51.5625 Q640.7188,51.5625 641.2188,52.0938 Q641.75,52.5938 641.75,53.2813 Q641.75,53.9688 641.0625,54.7813 Q640.0625,55.9375 638.4688,56.5938 Q636.3125,57.5 633.7188,57.5 Q630.6875,57.5 628.2813,56.25 Q626.3125,55.25 624.9375,53.125 Q623.5625,50.9688 623.5625,48.4063 L623.5625,46.0938 Q623.5625,43.4375 624.7813,41.1563 Q626.0313,38.8438 628.2188,37.625 Q630.4063,36.375 632.875,36.375 Q634.3438,36.375 635.625,36.7188 Q636.9375,37.0313 638.0313,37.75 Z " fill="#000000"/><text fill="#000000" font-family="sans-serif" font-size="24" lengthAdjust="spacing" textLength="76" x="667.5" y="55.8203">Tienda</text><line style="stroke:#A80036;stroke-width:3.0;" x1="573" x2="779" y1="78" y2="78"/><rect fill="none" height="12" style="stroke:#C82930;stroke-width:2.0;" width="12" x="587" y="94"/><text fill="#000000" font-family="sans-serif" font-size="22" lengthAdjust="spacing" textLength="90" x="611" y="108.8379">cif: string</text><rect fill="none" height="12" style="stroke:#C82930;stroke-width:2.0;" width="12" x="587" y="121.6719"/><text fill="#000000" font-family="sans-serif" font-size="22" lengthAdjust="spacing" textLength="158" x="611" y="136.5098">ubicacion: string</text><rect fill="none" height="12" style="stroke:#C82930;stroke-width:2.0;" width="12" x="587" y="149.3438"/><text fill="#000000" font-family="sans-serif" font-size="22" lengthAdjust="spacing" textLength="138" x="611" y="164.1816">nombre: string</text><line style="stroke:#A80036;stroke-width:3.0;" x1="573" x2="779" y1="177.0156" y2="177.0156"/><!--MD5=[e54d1ddad44fdb9ba256a8749f08d4fc]
class Equipo--><rect codeLine="8" fill="#FEFECE" filter="url(#f15ay1w7fx0mo9)" height="96" id="Equipo" style="stroke:#A80036;stroke-width:3.0;" width="142" x="605" y="858"/><ellipse cx="635" cy="890" fill="#ADD1B2" rx="22" ry="22" style="stroke:#A80036;stroke-width:2.0;"/><path d="M640.5313,881.75 Q640.8438,881.3125 641.2188,881.0938 Q641.5938,880.875 642.0313,880.875 Q642.7813,880.875 643.25,881.4063 Q643.7188,881.9063 643.7188,883.125 L643.7188,886.0313 Q643.7188,887.25 643.25,887.7813 Q642.7813,888.3125 642.0313,888.3125 Q641.3438,888.3125 640.9375,887.9063 Q640.5313,887.5313 640.3125,886.5 Q640.2188,885.7813 639.8438,885.4063 Q639.1875,884.6563 637.9688,884.2188 Q636.75,883.7813 635.5,883.7813 Q633.9688,883.7813 632.6875,884.4375 Q631.4375,885.0938 630.4375,886.5938 Q629.4688,888.0938 629.4688,890.1563 L629.4688,892.3438 Q629.4688,894.8125 631.25,896.4688 Q633.0313,898.0938 636.2188,898.0938 Q638.0938,898.0938 639.4063,897.5938 Q640.1875,897.2813 641.0313,896.4063 Q641.5625,895.875 641.8438,895.7188 Q642.1563,895.5625 642.5625,895.5625 Q643.2188,895.5625 643.7188,896.0938 Q644.25,896.5938 644.25,897.2813 Q644.25,897.9688 643.5625,898.7813 Q642.5625,899.9375 640.9688,900.5938 Q638.8125,901.5 636.2188,901.5 Q633.1875,901.5 630.7813,900.25 Q628.8125,899.25 627.4375,897.125 Q626.0625,894.9688 626.0625,892.4063 L626.0625,890.0938 Q626.0625,887.4375 627.2813,885.1563 Q628.5313,882.8438 630.7188,881.625 Q632.9063,880.375 635.375,880.375 Q636.8438,880.375 638.125,880.7188 Q639.4375,881.0313 640.5313,881.75 Z " fill="#000000"/><text fill="#000000" font-family="sans-serif" font-size="24" lengthAdjust="spacing" textLength="78" x="663" y="899.8203">Equipo</text><line style="stroke:#A80036;stroke-width:3.0;" x1="607" x2="745" y1="922" y2="922"/><line style="stroke:#A80036;stroke-width:3.0;" x1="607" x2="745" y1="938" y2="938"/><!--MD5=[26f52e8cdeb22fdf912fb404b68a6082]
class Esqui--><rect codeLine="12" fill="#FEFECE" filter="url(#f15ay1w7fx0mo9)" height="123.6719" id="Esqui" style="stroke:#A80036;stroke-width:3.0;" width="252" x="68" y="1102"/><ellipse cx="153.8" cy="1134" fill="#ADD1B2" rx="22" ry="22" style="stroke:#A80036;stroke-width:2.0;"/><path d="M159.3313,1125.75 Q159.6438,1125.3125 160.0188,1125.0938 Q160.3938,1124.875 160.8313,1124.875 Q161.5813,1124.875 162.05,1125.4063 Q162.5188,1125.9063 162.5188,1127.125 L162.5188,1130.0313 Q162.5188,1131.25 162.05,1131.7813 Q161.5813,1132.3125 160.8313,1132.3125 Q160.1438,1132.3125 159.7375,1131.9063 Q159.3313,1131.5313 159.1125,1130.5 Q159.0188,1129.7813 158.6438,1129.4063 Q157.9875,1128.6563 156.7688,1128.2188 Q155.55,1127.7813 154.3,1127.7813 Q152.7688,1127.7813 151.4875,1128.4375 Q150.2375,1129.0938 149.2375,1130.5938 Q148.2688,1132.0938 148.2688,1134.1563 L148.2688,1136.3438 Q148.2688,1138.8125 150.05,1140.4688 Q151.8313,1142.0938 155.0188,1142.0938 Q156.8938,1142.0938 158.2063,1141.5938 Q158.9875,1141.2813 159.8313,1140.4063 Q160.3625,1139.875 160.6438,1139.7188 Q160.9563,1139.5625 161.3625,1139.5625 Q162.0188,1139.5625 162.5188,1140.0938 Q163.05,1140.5938 163.05,1141.2813 Q163.05,1141.9688 162.3625,1142.7813 Q161.3625,1143.9375 159.7688,1144.5938 Q157.6125,1145.5 155.0188,1145.5 Q151.9875,1145.5 149.5813,1144.25 Q147.6125,1143.25 146.2375,1141.125 Q144.8625,1138.9688 144.8625,1136.4063 L144.8625,1134.0938 Q144.8625,1131.4375 146.0813,1129.1563 Q147.3313,1126.8438 149.5188,1125.625 Q151.7063,1124.375 154.175,1124.375 Q155.6438,1124.375 156.925,1124.7188 Q158.2375,1125.0313 159.3313,1125.75 Z " fill="#000000"/><text fill="#000000" font-family="sans-serif" font-size="24" lengthAdjust="spacing" textLength="64" x="194.2" y="1143.8203">Esqui</text><line style="stroke:#A80036;stroke-width:3.0;" x1="70" x2="318" y1="1166" y2="1166"/><rect fill="none" height="12" style="stroke:#C82930;stroke-width:2.0;" width="12" x="84" y="1182"/><text fill="#000000" font-family="sans-serif" font-size="22" lengthAdjust="spacing" textLength="200" x="108" y="1196.8379">numeroSerie: integer</text><line style="stroke:#A80036;stroke-width:3.0;" x1="70" x2="318" y1="1209.6719" y2="1209.6719"/><!--MD5=[c697cdd6c102d1ef4f6082caf1dabcae]
class Marca--><rect codeLine="16" fill="#FEFECE" filter="url(#f15ay1w7fx0mo9)" height="151.3438" id="Marca" style="stroke:#A80036;stroke-width:3.0;" width="360" x="14" y="1496"/><ellipse cx="152.5" cy="1528" fill="#ADD1B2" rx="22" ry="22" style="stroke:#A80036;stroke-width:2.0;"/><path d="M158.0313,1519.75 Q158.3438,1519.3125 158.7188,1519.0938 Q159.0938,1518.875 159.5313,1518.875 Q160.2813,1518.875 160.75,1519.4063 Q161.2188,1519.9063 161.2188,1521.125 L161.2188,1524.0313 Q161.2188,1525.25 160.75,1525.7813 Q160.2813,1526.3125 159.5313,1526.3125 Q158.8438,1526.3125 158.4375,1525.9063 Q158.0313,1525.5313 157.8125,1524.5 Q157.7188,1523.7813 157.3438,1523.4063 Q156.6875,1522.6563 155.4688,1522.2188 Q154.25,1521.7813 153,1521.7813 Q151.4688,1521.7813 150.1875,1522.4375 Q148.9375,1523.0938 147.9375,1524.5938 Q146.9688,1526.0938 146.9688,1528.1563 L146.9688,1530.3438 Q146.9688,1532.8125 148.75,1534.4688 Q150.5313,1536.0938 153.7188,1536.0938 Q155.5938,1536.0938 156.9063,1535.5938 Q157.6875,1535.2813 158.5313,1534.4063 Q159.0625,1533.875 159.3438,1533.7188 Q159.6563,1533.5625 160.0625,1533.5625 Q160.7188,1533.5625 161.2188,1534.0938 Q161.75,1534.5938 161.75,1535.2813 Q161.75,1535.9688 161.0625,1536.7813 Q160.0625,1537.9375 158.4688,1538.5938 Q156.3125,1539.5 153.7188,1539.5 Q150.6875,1539.5 148.2813,1538.25 Q146.3125,1537.25 144.9375,1535.125 Q143.5625,1532.9688 143.5625,1530.4063 L143.5625,1528.0938 Q143.5625,1525.4375 144.7813,1523.1563 Q146.0313,1520.8438 148.2188,1519.625 Q150.4063,1518.375 152.875,1518.375 Q154.3438,1518.375 155.625,1518.7188 Q156.9375,1519.0313 158.0313,1519.75 Z " fill="#000000"/><text fill="#000000" font-family="sans-serif" font-size="24" lengthAdjust="spacing" textLength="66" x="193.5" y="1537.8203">Marca</text><line style="stroke:#A80036;stroke-width:3.0;" x1="16" x2="372" y1="1560" y2="1560"/><rect fill="none" height="12" style="stroke:#C82930;stroke-width:2.0;" width="12" x="30" y="1576"/><text fill="#000000" font-family="sans-serif" font-size="22" lengthAdjust="spacing" textLength="254" x="54" y="1590.8379">direccionProveedor: string</text><rect fill="none" height="12" style="stroke:#C82930;stroke-width:2.0;" width="12" x="30" y="1603.6719"/><text fill="#000000" font-family="sans-serif" font-size="22" lengthAdjust="spacing" textLength="308" x="54" y="1618.5098">direccionServicioTecnico: string</text><line style="stroke:#A80036;stroke-width:3.0;" x1="16" x2="372" y1="1631.3438" y2="1631.3438"/><!--MD5=[076f710cfe7883b4052bdb452eb45c61]
class Gafa--><rect codeLine="21" fill="#FEFECE" filter="url(#f15ay1w7fx0mo9)" height="179.0156" id="Gafa" style="stroke:#A80036;stroke-width:3.0;" width="252" x="390" y="1074"/><ellipse cx="481.5" cy="1106" fill="#ADD1B2" rx="22" ry="22" style="stroke:#A80036;stroke-width:2.0;"/><path d="M487.0313,1097.75 Q487.3438,1097.3125 487.7188,1097.0938 Q488.0938,1096.875 488.5313,1096.875 Q489.2813,1096.875 489.75,1097.4063 Q490.2188,1097.9063 490.2188,1099.125 L490.2188,1102.0313 Q490.2188,1103.25 489.75,1103.7813 Q489.2813,1104.3125 488.5313,1104.3125 Q487.8438,1104.3125 487.4375,1103.9063 Q487.0313,1103.5313 486.8125,1102.5 Q486.7188,1101.7813 486.3438,1101.4063 Q485.6875,1100.6563 484.4688,1100.2188 Q483.25,1099.7813 482,1099.7813 Q480.4688,1099.7813 479.1875,1100.4375 Q477.9375,1101.0938 476.9375,1102.5938 Q475.9688,1104.0938 475.9688,1106.1563 L475.9688,1108.3438 Q475.9688,1110.8125 477.75,1112.4688 Q479.5313,1114.0938 482.7188,1114.0938 Q484.5938,1114.0938 485.9063,1113.5938 Q486.6875,1113.2813 487.5313,1112.4063 Q488.0625,1111.875 488.3438,1111.7188 Q488.6563,1111.5625 489.0625,1111.5625 Q489.7188,1111.5625 490.2188,1112.0938 Q490.75,1112.5938 490.75,1113.2813 Q490.75,1113.9688 490.0625,1114.7813 Q489.0625,1115.9375 487.4688,1116.5938 Q485.3125,1117.5 482.7188,1117.5 Q479.6875,1117.5 477.2813,1116.25 Q475.3125,1115.25 473.9375,1113.125 Q472.5625,1110.9688 472.5625,1108.4063 L472.5625,1106.0938 Q472.5625,1103.4375 473.7813,1101.1563 Q475.0313,1098.8438 477.2188,1097.625 Q479.4063,1096.375 481.875,1096.375 Q483.3438,1096.375 484.625,1096.7188 Q485.9375,1097.0313 487.0313,1097.75 Z " fill="#000000"/><text fill="#000000" font-family="sans-serif" font-size="24" lengthAdjust="spacing" textLength="52" x="522.5" y="1115.8203">Gafa</text><line style="stroke:#A80036;stroke-width:3.0;" x1="392" x2="640" y1="1138" y2="1138"/><rect fill="none" height="12" style="stroke:#C82930;stroke-width:2.0;" width="12" x="406" y="1154"/><text fill="#000000" font-family="sans-serif" font-size="22" lengthAdjust="spacing" textLength="126" x="430" y="1168.8379">marca: string</text><rect fill="none" height="12" style="stroke:#C82930;stroke-width:2.0;" width="12" x="406" y="1181.6719"/><text fill="#000000" font-family="sans-serif" font-size="22" lengthAdjust="spacing" textLength="134" x="430" y="1196.5098">modelo: string</text><rect fill="none" height="12" style="stroke:#C82930;stroke-width:2.0;" width="12" x="406" y="1209.3438"/><text fill="#000000" font-family="sans-serif" font-size="22" lengthAdjust="spacing" textLength="200" x="430" y="1224.1816">numeroSerie: integer</text><line style="stroke:#A80036;stroke-width:3.0;" x1="392" x2="640" y1="1237.0156" y2="1237.0156"/><!--MD5=[22c8b4f49f1fc69147180a6f713e27c6]
class Baston--><rect codeLine="27" fill="#FEFECE" filter="url(#f15ay1w7fx0mo9)" height="179.0156" id="Baston" style="stroke:#A80036;stroke-width:3.0;" width="252" x="712" y="1074"/><ellipse cx="791.5" cy="1106" fill="#ADD1B2" rx="22" ry="22" style="stroke:#A80036;stroke-width:2.0;"/><path d="M797.0313,1097.75 Q797.3438,1097.3125 797.7188,1097.0938 Q798.0938,1096.875 798.5313,1096.875 Q799.2813,1096.875 799.75,1097.4063 Q800.2188,1097.9063 800.2188,1099.125 L800.2188,1102.0313 Q800.2188,1103.25 799.75,1103.7813 Q799.2813,1104.3125 798.5313,1104.3125 Q797.8438,1104.3125 797.4375,1103.9063 Q797.0313,1103.5313 796.8125,1102.5 Q796.7188,1101.7813 796.3438,1101.4063 Q795.6875,1100.6563 794.4688,1100.2188 Q793.25,1099.7813 792,1099.7813 Q790.4688,1099.7813 789.1875,1100.4375 Q787.9375,1101.0938 786.9375,1102.5938 Q785.9688,1104.0938 785.9688,1106.1563 L785.9688,1108.3438 Q785.9688,1110.8125 787.75,1112.4688 Q789.5313,1114.0938 792.7188,1114.0938 Q794.5938,1114.0938 795.9063,1113.5938 Q796.6875,1113.2813 797.5313,1112.4063 Q798.0625,1111.875 798.3438,1111.7188 Q798.6563,1111.5625 799.0625,1111.5625 Q799.7188,1111.5625 800.2188,1112.0938 Q800.75,1112.5938 800.75,1113.2813 Q800.75,1113.9688 800.0625,1114.7813 Q799.0625,1115.9375 797.4688,1116.5938 Q795.3125,1117.5 792.7188,1117.5 Q789.6875,1117.5 787.2813,1116.25 Q785.3125,1115.25 783.9375,1113.125 Q782.5625,1110.9688 782.5625,1108.4063 L782.5625,1106.0938 Q782.5625,1103.4375 783.7813,1101.1563 Q785.0313,1098.8438 787.2188,1097.625 Q789.4063,1096.375 791.875,1096.375 Q793.3438,1096.375 794.625,1096.7188 Q795.9375,1097.0313 797.0313,1097.75 Z " fill="#000000"/><text fill="#000000" font-family="sans-serif" font-size="24" lengthAdjust="spacing" textLength="78" x="830.5" y="1115.8203">Baston</text><line style="stroke:#A80036;stroke-width:3.0;" x1="714" x2="962" y1="1138" y2="1138"/><rect fill="none" height="12" style="stroke:#C82930;stroke-width:2.0;" width="12" x="728" y="1154"/><text fill="#000000" font-family="sans-serif" font-size="22" lengthAdjust="spacing" textLength="126" x="752" y="1168.8379">marca: string</text><rect fill="none" height="12" style="stroke:#C82930;stroke-width:2.0;" width="12" x="728" y="1181.6719"/><text fill="#000000" font-family="sans-serif" font-size="22" lengthAdjust="spacing" textLength="134" x="752" y="1196.5098">modelo: string</text><rect fill="none" height="12" style="stroke:#C82930;stroke-width:2.0;" width="12" x="728" y="1209.3438"/><text fill="#000000" font-family="sans-serif" font-size="22" lengthAdjust="spacing" textLength="200" x="752" y="1224.1816">numeroSerie: integer</text><line style="stroke:#A80036;stroke-width:3.0;" x1="714" x2="962" y1="1237.0156" y2="1237.0156"/><!--MD5=[20a748d5ee336a9a91751b0a3d4f0beb]
class Cliente--><rect codeLine="33" fill="#FEFECE" filter="url(#f15ay1w7fx0mo9)" height="179.0156" id="Cliente" style="stroke:#A80036;stroke-width:3.0;" width="208" x="712" y="436"/><ellipse cx="771.7" cy="468" fill="#ADD1B2" rx="22" ry="22" style="stroke:#A80036;stroke-width:2.0;"/><path d="M777.2313,459.75 Q777.5438,459.3125 777.9188,459.0938 Q778.2938,458.875 778.7313,458.875 Q779.4813,458.875 779.95,459.4063 Q780.4188,459.9063 780.4188,461.125 L780.4188,464.0313 Q780.4188,465.25 779.95,465.7813 Q779.4813,466.3125 778.7313,466.3125 Q778.0438,466.3125 777.6375,465.9063 Q777.2313,465.5313 777.0125,464.5 Q776.9188,463.7813 776.5438,463.4063 Q775.8875,462.6563 774.6688,462.2188 Q773.45,461.7813 772.2,461.7813 Q770.6688,461.7813 769.3875,462.4375 Q768.1375,463.0938 767.1375,464.5938 Q766.1688,466.0938 766.1688,468.1563 L766.1688,470.3438 Q766.1688,472.8125 767.95,474.4688 Q769.7313,476.0938 772.9188,476.0938 Q774.7938,476.0938 776.1063,475.5938 Q776.8875,475.2813 777.7313,474.4063 Q778.2625,473.875 778.5438,473.7188 Q778.8563,473.5625 779.2625,473.5625 Q779.9188,473.5625 780.4188,474.0938 Q780.95,474.5938 780.95,475.2813 Q780.95,475.9688 780.2625,476.7813 Q779.2625,477.9375 777.6688,478.5938 Q775.5125,479.5 772.9188,479.5 Q769.8875,479.5 767.4813,478.25 Q765.5125,477.25 764.1375,475.125 Q762.7625,472.9688 762.7625,470.4063 L762.7625,468.0938 Q762.7625,465.4375 763.9813,463.1563 Q765.2313,460.8438 767.4188,459.625 Q769.6063,458.375 772.075,458.375 Q773.5438,458.375 774.825,458.7188 Q776.1375,459.0313 777.2313,459.75 Z " fill="#000000"/><text fill="#000000" font-family="sans-serif" font-size="24" lengthAdjust="spacing" textLength="78" x="806.3" y="477.8203">Cliente</text><line style="stroke:#A80036;stroke-width:3.0;" x1="714" x2="918" y1="500" y2="500"/><rect fill="none" height="12" style="stroke:#C82930;stroke-width:2.0;" width="12" x="728" y="516"/><text fill="#000000" font-family="sans-serif" font-size="22" lengthAdjust="spacing" textLength="94" x="752" y="530.8379">dni: string</text><rect fill="none" height="12" style="stroke:#C82930;stroke-width:2.0;" width="12" x="728" y="543.6719"/><text fill="#000000" font-family="sans-serif" font-size="22" lengthAdjust="spacing" textLength="138" x="752" y="558.5098">nombre: string</text><rect fill="none" height="12" style="stroke:#C82930;stroke-width:2.0;" width="12" x="728" y="571.3438"/><text fill="#000000" font-family="sans-serif" font-size="22" lengthAdjust="spacing" textLength="156" x="752" y="586.1816">telefono: integer</text><line style="stroke:#A80036;stroke-width:3.0;" x1="714" x2="918" y1="599.0156" y2="599.0156"/><!--MD5=[82e55fbadcf81394abef0491cb8b4a79]
class Alquiler--><rect codeLine="39" fill="#FEFECE" filter="url(#f15ay1w7fx0mo9)" height="151.3438" id="Alquiler" style="stroke:#A80036;stroke-width:3.0;" width="314" x="1035" y="1088"/><ellipse cx="1142.5" cy="1120" fill="#ADD1B2" rx="22" ry="22" style="stroke:#A80036;stroke-width:2.0;"/><path d="M1148.0313,1111.75 Q1148.3438,1111.3125 1148.7188,1111.0938 Q1149.0938,1110.875 1149.5313,1110.875 Q1150.2813,1110.875 1150.75,1111.4063 Q1151.2188,1111.9063 1151.2188,1113.125 L1151.2188,1116.0313 Q1151.2188,1117.25 1150.75,1117.7813 Q1150.2813,1118.3125 1149.5313,1118.3125 Q1148.8438,1118.3125 1148.4375,1117.9063 Q1148.0313,1117.5313 1147.8125,1116.5 Q1147.7188,1115.7813 1147.3438,1115.4063 Q1146.6875,1114.6563 1145.4688,1114.2188 Q1144.25,1113.7813 1143,1113.7813 Q1141.4688,1113.7813 1140.1875,1114.4375 Q1138.9375,1115.0938 1137.9375,1116.5938 Q1136.9688,1118.0938 1136.9688,1120.1563 L1136.9688,1122.3438 Q1136.9688,1124.8125 1138.75,1126.4688 Q1140.5313,1128.0938 1143.7188,1128.0938 Q1145.5938,1128.0938 1146.9063,1127.5938 Q1147.6875,1127.2813 1148.5313,1126.4063 Q1149.0625,1125.875 1149.3438,1125.7188 Q1149.6563,1125.5625 1150.0625,1125.5625 Q1150.7188,1125.5625 1151.2188,1126.0938 Q1151.75,1126.5938 1151.75,1127.2813 Q1151.75,1127.9688 1151.0625,1128.7813 Q1150.0625,1129.9375 1148.4688,1130.5938 Q1146.3125,1131.5 1143.7188,1131.5 Q1140.6875,1131.5 1138.2813,1130.25 Q1136.3125,1129.25 1134.9375,1127.125 Q1133.5625,1124.9688 1133.5625,1122.4063 L1133.5625,1120.0938 Q1133.5625,1117.4375 1134.7813,1115.1563 Q1136.0313,1112.8438 1138.2188,1111.625 Q1140.4063,1110.375 1142.875,1110.375 Q1144.3438,1110.375 1145.625,1110.7188 Q1146.9375,1111.0313 1148.0313,1111.75 Z " fill="#000000"/><text fill="#000000" font-family="sans-serif" font-size="24" lengthAdjust="spacing" textLength="82" x="1183.5" y="1129.8203">Alquiler</text><line style="stroke:#A80036;stroke-width:3.0;" x1="1037" x2="1347" y1="1152" y2="1152"/><rect fill="none" height="12" style="stroke:#C82930;stroke-width:2.0;" width="12" x="1051" y="1168"/><text fill="#000000" font-family="sans-serif" font-size="22" lengthAdjust="spacing" textLength="228" x="1075" y="1182.8379">fechaAlquiler: DateTime</text><rect fill="none" height="12" style="stroke:#C82930;stroke-width:2.0;" width="12" x="1051" y="1195.6719"/><text fill="#000000" font-family="sans-serif" font-size="22" lengthAdjust="spacing" textLength="262" x="1075" y="1210.5098">fechaDevolucion: DateTime</text><line style="stroke:#A80036;stroke-width:3.0;" x1="1037" x2="1347" y1="1223.3438" y2="1223.3438"/><!--MD5=[74463207fbc31d55255900a970a1881a]
link Tienda to Cliente--><path codeLine="45" d="M705.52,194.14 C729.34,265.28 762.7,364.88 786.52,435.98 " fill="none" id="Tienda-Cliente" style="stroke:#A80036;stroke-width:2.0;"/><text fill="#000000" font-family="sans-serif" font-size="26" lengthAdjust="spacing" textLength="14" x="694.6869" y="236.1748">1</text><text fill="#000000" font-family="sans-serif" font-size="26" lengthAdjust="spacing" textLength="10" x="771.0247" y="414.2078">*</text><!--MD5=[2d397980e6f57fdbe85b7c032f989aa1]
link Tienda to Equipo--><path codeLine="46" d="M676,194.44 C676,363.66 676,727.92 676,857.26 " fill="none" id="Tienda-Equipo" style="stroke:#A80036;stroke-width:2.0;"/><text fill="#000000" font-family="sans-serif" font-size="26" lengthAdjust="spacing" textLength="14" x="661.0594" y="235.8465">1</text><text fill="#000000" font-family="sans-serif" font-size="26" lengthAdjust="spacing" textLength="10" x="664.7813" y="836.5556">*</text><!--MD5=[b4a6aa39c46a1f21579237600e56f03e]
reverse link Equipo to Esqui--><path codeLine="47" d="M581.24,956 C516.92,988.8 430.04,1033.5 354,1074 C337.22,1082.94 319.5,1092.52 302.22,1101.96 " fill="none" id="Equipo-backto-Esqui" style="stroke:#A80036;stroke-width:2.0;"/><polygon fill="#A80036" points="604.74,944.04,590.418,942.3426,583.3428,954.9101,597.6648,956.6075,604.74,944.04" style="stroke:#A80036;stroke-width:2.0;"/><text fill="#000000" font-family="sans-serif" font-size="26" lengthAdjust="spacing" textLength="14" x="574.5989" y="943.6485">1</text><text fill="#000000" font-family="sans-serif" font-size="26" lengthAdjust="spacing" textLength="10" x="314.7994" y="1079.9918">*</text><!--MD5=[64a6717128f0706d7fcaf2595929147b]
reverse link Equipo to Gafa--><path codeLine="48" d="M632.46,977.1 C613.74,1006.84 591.62,1041.96 571.7,1073.56 " fill="none" id="Equipo-backto-Gafa" style="stroke:#A80036;stroke-width:2.0;"/><polygon fill="#A80036" points="646.66,954.58,633.4954,960.47,633.869,974.8874,647.0336,968.9974,646.66,954.58" style="stroke:#A80036;stroke-width:2.0;"/><text fill="#000000" font-family="sans-serif" font-size="26" lengthAdjust="spacing" textLength="14" x="624.2564" y="996.5857">1</text><text fill="#000000" font-family="sans-serif" font-size="26" lengthAdjust="spacing" textLength="10" x="569.4634" y="1052.3808">*</text><!--MD5=[75cf88ffb2ac2947c26c1745238bbfcc]
reverse link Equipo to Baston--><path codeLine="49" d="M720.08,977.1 C739.04,1006.84 761.44,1041.96 781.6,1073.56 " fill="none" id="Equipo-backto-Baston" style="stroke:#A80036;stroke-width:2.0;"/><polygon fill="#A80036" points="705.72,954.58,705.4254,968.9992,718.6221,974.817,718.9167,960.3978,705.72,954.58" style="stroke:#A80036;stroke-width:2.0;"/><text fill="#000000" font-family="sans-serif" font-size="26" lengthAdjust="spacing" textLength="14" x="696.974" y="996.5857">1</text><text fill="#000000" font-family="sans-serif" font-size="26" lengthAdjust="spacing" textLength="10" x="762.1981" y="1052.3808">*</text><!--MD5=[fa7d36a7cf3fbf189008a58ee6b695a2]
reverse link Equipo to Alquiler--><path codeLine="50" d="M770.62,954.58 C846.36,991.86 954.04,1044.86 1041.6,1087.96 " fill="none" id="Equipo-backto-Alquiler" style="stroke:#A80036;stroke-width:2.0;"/><polygon fill="#A80036" points="747.2,943.06,754.4352,955.536,768.7343,953.6558,761.4991,941.1798,747.2,943.06" style="stroke:#A80036;stroke-width:2.0;"/><text fill="#000000" font-family="sans-serif" font-size="26" lengthAdjust="spacing" textLength="14" x="763.3288" y="942.4664">1</text><text fill="#000000" font-family="sans-serif" font-size="26" lengthAdjust="spacing" textLength="10" x="1008.7756" y="1069.5317">*</text><!--MD5=[81458ce8149fc7b37a180b194d5a1c8d]
link Cliente to Equipo--><path codeLine="51" d="M783.18,616.16 C755.06,691.7 715.64,797.52 693.28,857.58 " fill="none" id="Cliente-Equipo" style="stroke:#A80036;stroke-width:2.0;"/><text fill="#000000" font-family="sans-serif" font-size="26" lengthAdjust="spacing" textLength="14" x="763.5803" y="658.1976">1</text><text fill="#000000" font-family="sans-serif" font-size="26" lengthAdjust="spacing" textLength="44" x="703.3455" y="836.1527">0..1</text><!--MD5=[d8caaecaf921ce02fe8ce4f3051ef187]
link Esqui to Marca--><path codeLine="52" d="M194,1226.48 C194,1298.24 194,1417.88 194,1495.34 " fill="none" id="Esqui-Marca" style="stroke:#A80036;stroke-width:2.0;"/><text fill="#000000" font-family="sans-serif" font-size="26" lengthAdjust="spacing" textLength="10" x="183.0469" y="1268.5288">*</text><text fill="#000000" font-family="sans-serif" font-size="26" lengthAdjust="spacing" textLength="10" x="183.1406" y="1474.5211">*</text><!--MD5=[dfdb0fdd6e6dae2a779ccb19045c8020]
@startuml
scale 2
class Tienda {
    -cif: string
    -ubicacion: string
    -nombre: string    
}

class Equipo {
    
}

class Esqui {    
    -numeroSerie: integer 
}

class Marca {    
    -direccionProveedor: string
    -direccionServicioTecnico: string
}

class Gafa {
    -marca: string
    -modelo: string
    -numeroSerie: integer 
}

class Baston {
    -marca: string
    -modelo: string
    -numeroSerie: integer 
}

class Cliente {
    -dni: string    
    -nombre: string  
    -telefono: integer
}

class Alquiler {
    -fechaAlquiler: DateTime
    -fechaDevolucion: DateTime

}

Tienda "1" - - - "*" Cliente
Tienda "1" - - - "*" Equipo
Equipo "1" *- - "*" Esqui
Equipo "1" *- - "*" Gafa
Equipo "1" *- - "*" Baston
Equipo "1" *- - "*" Alquiler
Cliente "1" - - - "0..1" Equipo
Esqui "*" - - - "*" Marca
@enduml

PlantUML version 1.2021.00(Sun Jan 10 11:25:05 CET 2021)
(GPL source distribution)
Java Runtime: Java(TM) SE Runtime Environment
JVM: Java HotSpot(TM) 64-Bit Server VM
Default Encoding: Cp1252
Language: es
Country: ES
--></g></svg>