<?xml version="1.0" encoding="UTF-8" standalone="no"?><svg xmlns="http://www.w3.org/2000/svg" xmlns:xlink="http://www.w3.org/1999/xlink" contentScriptType="application/ecmascript" contentStyleType="text/css" height="1396px" preserveAspectRatio="none" style="width:760px;height:1396px;" version="1.1" viewBox="0 0 760 1396" width="760px" zoomAndPan="magnify"><defs><filter height="300%" id="f1valdp0p9ouqq" width="300%" x="-1" y="-1"><feGaussianBlur result="blurOut" stdDeviation="4.0"/><feColorMatrix in="blurOut" result="blurOut2" type="matrix" values="0 0 0 0 0 0 0 0 0 0 0 0 0 0 0 0 0 0 .4 0"/><feOffset dx="8.0" dy="8.0" in="blurOut2" result="blurOut3"/><feBlend in="SourceGraphic" in2="blurOut3" mode="normal"/></filter></defs><g><!--MD5=[a46cb1a56e58df0939a9c500b05df2ca]
class Publico--><rect codeLine="2" fill="#FEFECE" filter="url(#f1valdp0p9ouqq)" height="317.375" id="Publico" style="stroke:#A80036;stroke-width:3.0;" width="208" x="198" y="14"/><ellipse cx="255.9" cy="46" fill="#ADD1B2" rx="22" ry="22" style="stroke:#A80036;stroke-width:2.0;"/><path d="M261.4313,37.75 Q261.7438,37.3125 262.1188,37.0938 Q262.4938,36.875 262.9313,36.875 Q263.6813,36.875 264.15,37.4063 Q264.6188,37.9063 264.6188,39.125 L264.6188,42.0313 Q264.6188,43.25 264.15,43.7813 Q263.6813,44.3125 262.9313,44.3125 Q262.2438,44.3125 261.8375,43.9063 Q261.4313,43.5313 261.2125,42.5 Q261.1188,41.7813 260.7438,41.4063 Q260.0875,40.6563 258.8688,40.2188 Q257.65,39.7813 256.4,39.7813 Q254.8688,39.7813 253.5875,40.4375 Q252.3375,41.0938 251.3375,42.5938 Q250.3688,44.0938 250.3688,46.1563 L250.3688,48.3438 Q250.3688,50.8125 252.15,52.4688 Q253.9313,54.0938 257.1188,54.0938 Q258.9938,54.0938 260.3063,53.5938 Q261.0875,53.2813 261.9313,52.4063 Q262.4625,51.875 262.7438,51.7188 Q263.0563,51.5625 263.4625,51.5625 Q264.1188,51.5625 264.6188,52.0938 Q265.15,52.5938 265.15,53.2813 Q265.15,53.9688 264.4625,54.7813 Q263.4625,55.9375 261.8688,56.5938 Q259.7125,57.5 257.1188,57.5 Q254.0875,57.5 251.6813,56.25 Q249.7125,55.25 248.3375,53.125 Q246.9625,50.9688 246.9625,48.4063 L246.9625,46.0938 Q246.9625,43.4375 248.1813,41.1563 Q249.4313,38.8438 251.6188,37.625 Q253.8063,36.375 256.275,36.375 Q257.7438,36.375 259.025,36.7188 Q260.3375,37.0313 261.4313,37.75 Z " fill="#000000"/><text fill="#000000" font-family="sans-serif" font-size="24" lengthAdjust="spacing" textLength="82" x="290.1" y="55.8203">Publico</text><line style="stroke:#A80036;stroke-width:3.0;" x1="200" x2="404" y1="78" y2="78"/><rect fill="none" height="12" style="stroke:#C82930;stroke-width:2.0;" width="12" x="214" y="94"/><text fill="#000000" font-family="sans-serif" font-size="22" lengthAdjust="spacing" textLength="94" x="238" y="108.8379">dni: string</text><rect fill="none" height="12" style="stroke:#C82930;stroke-width:2.0;" width="12" x="214" y="121.6719"/><text fill="#000000" font-family="sans-serif" font-size="22" lengthAdjust="spacing" textLength="138" x="238" y="136.5098">nombre: string</text><rect fill="none" height="12" style="stroke:#C82930;stroke-width:2.0;" width="12" x="214" y="149.3438"/><text fill="#000000" font-family="sans-serif" font-size="22" lengthAdjust="spacing" textLength="154" x="238" y="164.1816">direccion: string</text><rect fill="none" height="12" style="stroke:#C82930;stroke-width:2.0;" width="12" x="214" y="177.0156"/><text fill="#000000" font-family="sans-serif" font-size="22" lengthAdjust="spacing" textLength="156" x="238" y="191.8535">telefono: integer</text><line style="stroke:#A80036;stroke-width:3.0;" x1="200" x2="404" y1="204.6875" y2="204.6875"/><ellipse cx="220" cy="226.6875" fill="#84BE84" rx="6" ry="6" style="stroke:#038048;stroke-width:2.0;"/><text fill="#000000" font-family="sans-serif" font-size="22" lengthAdjust="spacing" textLength="46" x="238" y="235.5254">Dni()</text><ellipse cx="220" cy="254.3594" fill="#84BE84" rx="6" ry="6" style="stroke:#038048;stroke-width:2.0;"/><text fill="#000000" font-family="sans-serif" font-size="22" lengthAdjust="spacing" textLength="90" x="238" y="263.1973">Nombre()</text><ellipse cx="220" cy="282.0313" fill="#84BE84" rx="6" ry="6" style="stroke:#038048;stroke-width:2.0;"/><text fill="#000000" font-family="sans-serif" font-size="22" lengthAdjust="spacing" textLength="106" x="238" y="290.8691">Direccion()</text><ellipse cx="220" cy="309.7031" fill="#84BE84" rx="6" ry="6" style="stroke:#038048;stroke-width:2.0;"/><text fill="#000000" font-family="sans-serif" font-size="22" lengthAdjust="spacing" textLength="100" x="238" y="318.541">Telefono()</text><!--MD5=[860d3631542e0ea07ec705566745e5f4]
class Abonado--><rect codeLine="13" fill="#FEFECE" filter="url(#f1valdp0p9ouqq)" height="179.0156" id="Abonado" style="stroke:#A80036;stroke-width:3.0;" width="256" x="14" y="452"/><ellipse cx="86.3" cy="484" fill="#ADD1B2" rx="22" ry="22" style="stroke:#A80036;stroke-width:2.0;"/><path d="M91.8313,475.75 Q92.1438,475.3125 92.5188,475.0938 Q92.8938,474.875 93.3313,474.875 Q94.0813,474.875 94.55,475.4063 Q95.0188,475.9063 95.0188,477.125 L95.0188,480.0313 Q95.0188,481.25 94.55,481.7813 Q94.0813,482.3125 93.3313,482.3125 Q92.6438,482.3125 92.2375,481.9063 Q91.8313,481.5313 91.6125,480.5 Q91.5188,479.7813 91.1438,479.4063 Q90.4875,478.6563 89.2688,478.2188 Q88.05,477.7813 86.8,477.7813 Q85.2688,477.7813 83.9875,478.4375 Q82.7375,479.0938 81.7375,480.5938 Q80.7688,482.0938 80.7688,484.1563 L80.7688,486.3438 Q80.7688,488.8125 82.55,490.4688 Q84.3313,492.0938 87.5188,492.0938 Q89.3938,492.0938 90.7063,491.5938 Q91.4875,491.2813 92.3313,490.4063 Q92.8625,489.875 93.1438,489.7188 Q93.4563,489.5625 93.8625,489.5625 Q94.5188,489.5625 95.0188,490.0938 Q95.55,490.5938 95.55,491.2813 Q95.55,491.9688 94.8625,492.7813 Q93.8625,493.9375 92.2688,494.5938 Q90.1125,495.5 87.5188,495.5 Q84.4875,495.5 82.0813,494.25 Q80.1125,493.25 78.7375,491.125 Q77.3625,488.9688 77.3625,486.4063 L77.3625,484.0938 Q77.3625,481.4375 78.5813,479.1563 Q79.8313,476.8438 82.0188,475.625 Q84.2063,474.375 86.675,474.375 Q88.1438,474.375 89.425,474.7188 Q90.7375,475.0313 91.8313,475.75 Z " fill="#000000"/><text fill="#000000" font-family="sans-serif" font-size="24" lengthAdjust="spacing" textLength="98" x="123.7" y="493.8203">Abonado</text><line style="stroke:#A80036;stroke-width:3.0;" x1="16" x2="268" y1="516" y2="516"/><rect fill="none" height="12" style="stroke:#C82930;stroke-width:2.0;" width="12" x="30" y="532"/><text fill="#000000" font-family="sans-serif" font-size="22" lengthAdjust="spacing" textLength="204" x="54" y="546.8379">numeroSocio: integer</text><line style="stroke:#A80036;stroke-width:3.0;" x1="16" x2="268" y1="559.6719" y2="559.6719"/><ellipse cx="36" cy="581.6719" fill="#84BE84" rx="6" ry="6" style="stroke:#038048;stroke-width:2.0;"/><text fill="#000000" font-family="sans-serif" font-size="22" lengthAdjust="spacing" textLength="144" x="54" y="590.5098">NumeroSocio()</text><ellipse cx="36" cy="609.3438" fill="#84BE84" rx="6" ry="6" style="stroke:#038048;stroke-width:2.0;"/><text fill="#000000" font-family="sans-serif" font-size="22" lengthAdjust="spacing" textLength="164" x="54" y="618.1816">CompraEntrada()</text><!--MD5=[eab0aabb882706540efc1d93340ee437]
class Simpatizante--><rect codeLine="19" fill="#FEFECE" filter="url(#f1valdp0p9ouqq)" height="179.0156" id="Simpatizante" style="stroke:#A80036;stroke-width:3.0;" width="246" x="341" y="452"/><ellipse cx="389" cy="484" fill="#ADD1B2" rx="22" ry="22" style="stroke:#A80036;stroke-width:2.0;"/><path d="M394.5313,475.75 Q394.8438,475.3125 395.2188,475.0938 Q395.5938,474.875 396.0313,474.875 Q396.7813,474.875 397.25,475.4063 Q397.7188,475.9063 397.7188,477.125 L397.7188,480.0313 Q397.7188,481.25 397.25,481.7813 Q396.7813,482.3125 396.0313,482.3125 Q395.3438,482.3125 394.9375,481.9063 Q394.5313,481.5313 394.3125,480.5 Q394.2188,479.7813 393.8438,479.4063 Q393.1875,478.6563 391.9688,478.2188 Q390.75,477.7813 389.5,477.7813 Q387.9688,477.7813 386.6875,478.4375 Q385.4375,479.0938 384.4375,480.5938 Q383.4688,482.0938 383.4688,484.1563 L383.4688,486.3438 Q383.4688,488.8125 385.25,490.4688 Q387.0313,492.0938 390.2188,492.0938 Q392.0938,492.0938 393.4063,491.5938 Q394.1875,491.2813 395.0313,490.4063 Q395.5625,489.875 395.8438,489.7188 Q396.1563,489.5625 396.5625,489.5625 Q397.2188,489.5625 397.7188,490.0938 Q398.25,490.5938 398.25,491.2813 Q398.25,491.9688 397.5625,492.7813 Q396.5625,493.9375 394.9688,494.5938 Q392.8125,495.5 390.2188,495.5 Q387.1875,495.5 384.7813,494.25 Q382.8125,493.25 381.4375,491.125 Q380.0625,488.9688 380.0625,486.4063 L380.0625,484.0938 Q380.0625,481.4375 381.2813,479.1563 Q382.5313,476.8438 384.7188,475.625 Q386.9063,474.375 389.375,474.375 Q390.8438,474.375 392.125,474.7188 Q393.4375,475.0313 394.5313,475.75 Z " fill="#000000"/><text fill="#000000" font-family="sans-serif" font-size="24" lengthAdjust="spacing" textLength="142" x="421" y="493.8203">Simpatizante</text><line style="stroke:#A80036;stroke-width:3.0;" x1="343" x2="585" y1="516" y2="516"/><rect fill="none" height="12" style="stroke:#C82930;stroke-width:2.0;" width="12" x="357" y="532"/><text fill="#000000" font-family="sans-serif" font-size="22" lengthAdjust="spacing" textLength="194" x="381" y="546.8379">fechaAlta: DateTime</text><line style="stroke:#A80036;stroke-width:3.0;" x1="343" x2="585" y1="559.6719" y2="559.6719"/><ellipse cx="363" cy="581.6719" fill="#84BE84" rx="6" ry="6" style="stroke:#038048;stroke-width:2.0;"/><text fill="#000000" font-family="sans-serif" font-size="22" lengthAdjust="spacing" textLength="114" x="381" y="590.5098">FechaAlta()</text><ellipse cx="363" cy="609.3438" fill="#84BE84" rx="6" ry="6" style="stroke:#038048;stroke-width:2.0;"/><text fill="#000000" font-family="sans-serif" font-size="22" lengthAdjust="spacing" textLength="164" x="381" y="618.1816">CompraEntrada()</text><!--MD5=[eca71ce118dab17e2c498309d5e14a6d]
class Partido--><rect codeLine="25" fill="#FEFECE" filter="url(#f1valdp0p9ouqq)" height="289.7031" id="Partido" style="stroke:#A80036;stroke-width:3.0;" width="208" x="524" y="752"/><ellipse cx="583.7" cy="784" fill="#ADD1B2" rx="22" ry="22" style="stroke:#A80036;stroke-width:2.0;"/><path d="M589.2313,775.75 Q589.5438,775.3125 589.9188,775.0938 Q590.2938,774.875 590.7313,774.875 Q591.4813,774.875 591.95,775.4063 Q592.4188,775.9063 592.4188,777.125 L592.4188,780.0313 Q592.4188,781.25 591.95,781.7813 Q591.4813,782.3125 590.7313,782.3125 Q590.0438,782.3125 589.6375,781.9063 Q589.2313,781.5313 589.0125,780.5 Q588.9188,779.7813 588.5438,779.4063 Q587.8875,778.6563 586.6688,778.2188 Q585.45,777.7813 584.2,777.7813 Q582.6688,777.7813 581.3875,778.4375 Q580.1375,779.0938 579.1375,780.5938 Q578.1688,782.0938 578.1688,784.1563 L578.1688,786.3438 Q578.1688,788.8125 579.95,790.4688 Q581.7313,792.0938 584.9188,792.0938 Q586.7938,792.0938 588.1063,791.5938 Q588.8875,791.2813 589.7313,790.4063 Q590.2625,789.875 590.5438,789.7188 Q590.8563,789.5625 591.2625,789.5625 Q591.9188,789.5625 592.4188,790.0938 Q592.95,790.5938 592.95,791.2813 Q592.95,791.9688 592.2625,792.7813 Q591.2625,793.9375 589.6688,794.5938 Q587.5125,795.5 584.9188,795.5 Q581.8875,795.5 579.4813,794.25 Q577.5125,793.25 576.1375,791.125 Q574.7625,788.9688 574.7625,786.4063 L574.7625,784.0938 Q574.7625,781.4375 575.9813,779.1563 Q577.2313,776.8438 579.4188,775.625 Q581.6063,774.375 584.075,774.375 Q585.5438,774.375 586.825,774.7188 Q588.1375,775.0313 589.2313,775.75 Z " fill="#000000"/><text fill="#000000" font-family="sans-serif" font-size="24" lengthAdjust="spacing" textLength="78" x="618.3" y="793.8203">Partido</text><line style="stroke:#A80036;stroke-width:3.0;" x1="526" x2="730" y1="816" y2="816"/><rect fill="none" height="12" style="stroke:#C82930;stroke-width:2.0;" width="12" x="540" y="832"/><text fill="#000000" font-family="sans-serif" font-size="22" lengthAdjust="spacing" textLength="142" x="564" y="846.8379">codigo: integer</text><rect fill="none" height="12" style="stroke:#C82930;stroke-width:2.0;" width="12" x="540" y="859.6719"/><text fill="#000000" font-family="sans-serif" font-size="22" lengthAdjust="spacing" textLength="138" x="564" y="874.5098">nombre: string</text><rect fill="none" height="12" style="stroke:#C82930;stroke-width:2.0;" width="12" x="540" y="887.3438"/><text fill="#000000" font-family="sans-serif" font-size="22" lengthAdjust="spacing" textLength="156" x="564" y="902.1816">fecha: DateTime</text><line style="stroke:#A80036;stroke-width:3.0;" x1="526" x2="730" y1="915.0156" y2="915.0156"/><ellipse cx="546" cy="937.0156" fill="#84BE84" rx="6" ry="6" style="stroke:#038048;stroke-width:2.0;"/><text fill="#000000" font-family="sans-serif" font-size="22" lengthAdjust="spacing" textLength="82" x="564" y="945.8535">Codigo()</text><ellipse cx="546" cy="964.6875" fill="#84BE84" rx="6" ry="6" style="stroke:#038048;stroke-width:2.0;"/><text fill="#000000" font-family="sans-serif" font-size="22" lengthAdjust="spacing" textLength="90" x="564" y="973.5254">Nombre()</text><ellipse cx="546" cy="992.3594" fill="#84BE84" rx="6" ry="6" style="stroke:#038048;stroke-width:2.0;"/><text fill="#000000" font-family="sans-serif" font-size="22" lengthAdjust="spacing" textLength="76" x="564" y="1001.1973">Fecha()</text><ellipse cx="546" cy="1020.0313" fill="#84BE84" rx="6" ry="6" style="stroke:#038048;stroke-width:2.0;"/><text fill="#000000" font-family="sans-serif" font-size="22" lengthAdjust="spacing" textLength="148" x="564" y="1028.8691">VentaEntrada()</text><!--MD5=[6694c18989b8e2458a5d3d469144568d]
class Entrada--><rect codeLine="35" fill="#FEFECE" filter="url(#f1valdp0p9ouqq)" height="206.6875" id="Entrada" style="stroke:#A80036;stroke-width:3.0;" width="276" x="280" y="1162"/><ellipse cx="366.7" cy="1194" fill="#ADD1B2" rx="22" ry="22" style="stroke:#A80036;stroke-width:2.0;"/><path d="M372.2313,1185.75 Q372.5438,1185.3125 372.9188,1185.0938 Q373.2938,1184.875 373.7313,1184.875 Q374.4813,1184.875 374.95,1185.4063 Q375.4188,1185.9063 375.4188,1187.125 L375.4188,1190.0313 Q375.4188,1191.25 374.95,1191.7813 Q374.4813,1192.3125 373.7313,1192.3125 Q373.0438,1192.3125 372.6375,1191.9063 Q372.2313,1191.5313 372.0125,1190.5 Q371.9188,1189.7813 371.5438,1189.4063 Q370.8875,1188.6563 369.6688,1188.2188 Q368.45,1187.7813 367.2,1187.7813 Q365.6688,1187.7813 364.3875,1188.4375 Q363.1375,1189.0938 362.1375,1190.5938 Q361.1688,1192.0938 361.1688,1194.1563 L361.1688,1196.3438 Q361.1688,1198.8125 362.95,1200.4688 Q364.7313,1202.0938 367.9188,1202.0938 Q369.7938,1202.0938 371.1063,1201.5938 Q371.8875,1201.2813 372.7313,1200.4063 Q373.2625,1199.875 373.5438,1199.7188 Q373.8563,1199.5625 374.2625,1199.5625 Q374.9188,1199.5625 375.4188,1200.0938 Q375.95,1200.5938 375.95,1201.2813 Q375.95,1201.9688 375.2625,1202.7813 Q374.2625,1203.9375 372.6688,1204.5938 Q370.5125,1205.5 367.9188,1205.5 Q364.8875,1205.5 362.4813,1204.25 Q360.5125,1203.25 359.1375,1201.125 Q357.7625,1198.9688 357.7625,1196.4063 L357.7625,1194.0938 Q357.7625,1191.4375 358.9813,1189.1563 Q360.2313,1186.8438 362.4188,1185.625 Q364.6063,1184.375 367.075,1184.375 Q368.5438,1184.375 369.825,1184.7188 Q371.1375,1185.0313 372.2313,1185.75 Z " fill="#000000"/><text fill="#000000" font-family="sans-serif" font-size="24" lengthAdjust="spacing" textLength="86" x="407.3" y="1203.8203">Entrada</text><line style="stroke:#A80036;stroke-width:3.0;" x1="282" x2="554" y1="1226" y2="1226"/><rect fill="none" height="12" style="stroke:#C82930;stroke-width:2.0;" width="12" x="296" y="1242"/><text fill="#000000" font-family="sans-serif" font-size="22" lengthAdjust="spacing" textLength="114" x="320" y="1256.8379">precio: float</text><rect fill="none" height="12" style="stroke:#C82930;stroke-width:2.0;" width="12" x="296" y="1269.6719"/><text fill="#000000" font-family="sans-serif" font-size="22" lengthAdjust="spacing" textLength="224" x="320" y="1284.5098">numeroAsiento: integer</text><line style="stroke:#A80036;stroke-width:3.0;" x1="282" x2="554" y1="1297.3438" y2="1297.3438"/><ellipse cx="302" cy="1319.3438" fill="#84BE84" rx="6" ry="6" style="stroke:#038048;stroke-width:2.0;"/><text fill="#000000" font-family="sans-serif" font-size="22" lengthAdjust="spacing" textLength="76" x="320" y="1328.1816">Precio()</text><ellipse cx="302" cy="1347.0156" fill="#84BE84" rx="6" ry="6" style="stroke:#038048;stroke-width:2.0;"/><text fill="#000000" font-family="sans-serif" font-size="22" lengthAdjust="spacing" textLength="164" x="320" y="1355.8535">NumeroAsiento()</text><!--MD5=[5906e02524f8c117dbcdf8f23a27c2e1]
reverse link Publico to Abonado--><path codeLine="42" d="M216.92,369.1 C204.22,398.06 191.7,426.62 180.64,451.86 " fill="none" id="Publico-backto-Abonado" style="stroke:#A80036;stroke-width:2.0;"/><polygon fill="none" points="204.1,363.46,232.98,332.44,229.74,374.7,204.1,363.46" style="stroke:#A80036;stroke-width:2.0;"/><!--MD5=[0aaad79b829a1572ce0bae4b5ae7dcba]
reverse link Publico to Simpatizante--><path codeLine="43" d="M388.14,369.1 C401,398.06 413.68,426.62 424.88,451.86 " fill="none" id="Publico-backto-Simpatizante" style="stroke:#A80036;stroke-width:2.0;"/><polygon fill="none" points="375.3,374.68,371.88,332.44,400.9,363.32,375.3,374.68" style="stroke:#A80036;stroke-width:2.0;"/><!--MD5=[7cdc74dcbcd2e58a86a80ce113b268a8]
reverse link Partido to Entrada--><path codeLine="44" d="M532.2,1065.06 C513.14,1098.1 493.66,1131.86 476.32,1161.92 " fill="none" id="Partido-backto-Entrada" style="stroke:#A80036;stroke-width:2.0;"/><polygon fill="#A80036" points="545.3,1042.34,532.3811,1048.7511,533.3303,1063.142,546.2491,1056.7309,545.3,1042.34" style="stroke:#A80036;stroke-width:2.0;"/><text fill="#000000" font-family="sans-serif" font-size="26" lengthAdjust="spacing" textLength="14" x="522.7505" y="1084.7556">1</text><text fill="#000000" font-family="sans-serif" font-size="26" lengthAdjust="spacing" textLength="10" x="473.8181" y="1140.1657">*</text><!--MD5=[39bec63cf64b0d5293d4145c7a3564af]
link Abonado to Entrada--><path codeLine="45" d="M175.84,632.16 C227.3,766.22 324.96,1020.62 379.22,1161.96 " fill="none" id="Abonado-Entrada" style="stroke:#A80036;stroke-width:2.0;"/><text fill="#000000" font-family="sans-serif" font-size="26" lengthAdjust="spacing" textLength="14" x="165.6144" y="674.1976">1</text><text fill="#000000" font-family="sans-serif" font-size="26" lengthAdjust="spacing" textLength="44" x="326.6728" y="1140.2113">0..5</text><!--MD5=[d3b2e4d81043f7729f1f5e3d100a09bf]
link Simpatizante to Entrada--><path codeLine="46" d="M458.36,632.16 C449.78,766.22 433.5,1020.62 424.46,1161.96 " fill="none" id="Simpatizante-Entrada" style="stroke:#A80036;stroke-width:2.0;"/><text fill="#000000" font-family="sans-serif" font-size="26" lengthAdjust="spacing" textLength="14" x="442.5825" y="674.1976">1</text><text fill="#000000" font-family="sans-serif" font-size="26" lengthAdjust="spacing" textLength="44" x="378.2747" y="1140.2113">0..1</text><!--MD5=[864b09f55fb74789f87f486e772104fa]
@startuml
scale 2
class Publico {
    -dni: string
    -nombre: string
    -direccion: string
    -telefono: integer  
     + Dni()  
     + Nombre()  
     + Direccion()  
     + Telefono()  
}

class Abonado {
    -numeroSocio: integer 
    + NumeroSocio()
    + CompraEntrada()
}

class Simpatizante {
    -fechaAlta: DateTime 
    + FechaAlta()
    + CompraEntrada()
}

class Partido {
    -codigo: integer
    -nombre: string
    -fecha: DateTime
    + Codigo()
    + Nombre()
    + Fecha()
    + VentaEntrada()
}

class Entrada {
    -precio: float
    -numeroAsiento: integer
    + Precio()
    + NumeroAsiento()
}

Publico <|- - Abonado
Publico <|- - Simpatizante
Partido "1" *- - "*" Entrada
Abonado "1" - - - "0..5" Entrada
Simpatizante "1" - - - "0..1" Entrada
@enduml

PlantUML version 1.2021.00(Sun Jan 10 11:25:05 CET 2021)
(GPL source distribution)
Java Runtime: Java(TM) SE Runtime Environment
JVM: Java HotSpot(TM) 64-Bit Server VM
Default Encoding: Cp1252
Language: es
Country: ES
--></g></svg>